<?xml version="1.0" encoding="UTF-8" standalone="no"?>
<!-- Created with Inkscape (http://www.inkscape.org/) -->

<svg
   width="200mm"
   height="200mm"
   viewBox="0 0 200 200"
   version="1.1"
   id="svg1"
   xml:space="preserve"
   inkscape:export-filename="title.png"
   inkscape:export-xdpi="60.476189"
   inkscape:export-ydpi="60.476189"
   inkscape:version="1.3 (0e150ed6c4, 2023-07-21)"
   sodipodi:docname="dibujo-1.svg"
   xmlns:inkscape="http://www.inkscape.org/namespaces/inkscape"
   xmlns:sodipodi="http://sodipodi.sourceforge.net/DTD/sodipodi-0.dtd"
   xmlns="http://www.w3.org/2000/svg"
   xmlns:svg="http://www.w3.org/2000/svg"><sodipodi:namedview
     id="namedview1"
     pagecolor="#ffffff"
     bordercolor="#000000"
     borderopacity="0.25"
     inkscape:showpageshadow="2"
     inkscape:pageopacity="0.0"
     inkscape:pagecheckerboard="0"
     inkscape:deskcolor="#d1d1d1"
     inkscape:document-units="mm"
     showguides="true"
     inkscape:zoom="1"
     inkscape:cx="352"
     inkscape:cy="347.5"
     inkscape:window-width="1920"
     inkscape:window-height="1009"
     inkscape:window-x="-8"
     inkscape:window-y="-8"
     inkscape:window-maximized="1"
     inkscape:current-layer="g13" /><defs
     id="defs1" /><g
     inkscape:label="Capa 1"
     inkscape:groupmode="layer"
     id="layer1"><g
       id="g10"
       transform="matrix(2.3666127,0,0,2.7464357,-300.48735,-123.08514)"><text
         xml:space="preserve"
         style="font-style:normal;font-variant:normal;font-weight:normal;font-stretch:normal;font-size:16.9333px;font-family:'Britannic Bold';-inkscape-font-specification:'Britannic Bold, Normal';font-variant-ligatures:normal;font-variant-caps:normal;font-variant-numeric:normal;font-variant-east-asian:normal;fill:#808080;fill-opacity:1;stroke:#7d7d7d;stroke-width:0.3;stroke-dasharray:none;stroke-opacity:1"
         x="132.39667"
         y="110.83202"
         id="text4"><tspan
           sodipodi:role="line"
           id="tspan4"
           style="font-style:normal;font-variant:normal;font-weight:normal;font-stretch:normal;font-size:16.9333px;font-family:'Britannic Bold';-inkscape-font-specification:'Britannic Bold, Normal';font-variant-ligatures:normal;font-variant-caps:normal;font-variant-numeric:normal;font-variant-east-asian:normal;fill:#808080;fill-opacity:1;stroke:#7d7d7d;stroke-width:0.3;stroke-dasharray:none;stroke-opacity:1"
           x="132.39667"
           y="110.83202">TritonOps</tspan></text><text
         xml:space="preserve"
         style="font-style:normal;font-variant:normal;font-weight:normal;font-stretch:normal;font-size:16.9333px;font-family:'Britannic Bold';-inkscape-font-specification:'Britannic Bold, Normal';font-variant-ligatures:normal;font-variant-caps:normal;font-variant-numeric:normal;font-variant-east-asian:normal;fill:#000000;fill-opacity:1;stroke:#000000;stroke-width:0.3;stroke-dasharray:none"
         x="133.51396"
         y="111.36685"
         id="text4-5"><tspan
           sodipodi:role="line"
           id="tspan4-0"
           style="font-style:normal;font-variant:normal;font-weight:normal;font-stretch:normal;font-size:16.9333px;font-family:'Britannic Bold';-inkscape-font-specification:'Britannic Bold, Normal';font-variant-ligatures:normal;font-variant-caps:normal;font-variant-numeric:normal;font-variant-east-asian:normal;fill:#000000;fill-opacity:1;stroke-width:0.3;stroke-dasharray:none"
           x="133.51396"
           y="111.36685">TritonOps</tspan></text></g><g
       id="g12"
       transform="matrix(1.592921,0,0,1.6116904,-167.22908,-17.702994)"><g
         id="g13"
         transform="matrix(1.5369752,0,0,1.2731027,-90.284758,-24.862386)"><g
           id="g11"><path
             style="fill:#999999;fill-opacity:1;stroke:#9f9f9f;stroke-width:0.345178;stroke-dasharray:none;stroke-opacity:1"
             d="m 167.32315,98.472593 c -2.67003,-0.61536 -4.14719,-1.37975 -6.10339,-3.15832 -0.75344,-0.68504 -1.70624,-2.06653 -2.82072,-4.08988 -1.72624,-3.13399 -2.92033,-6.48238 -3.62954,-10.17776 -0.15906,-0.8288 -0.4925,-2.53436 -0.74097,-3.790126 -0.77577,-3.92077 -1.33526,-7.843692 -1.96031,-13.744927 -0.43016,-4.061306 -0.34044,-3.653549 -0.80342,-3.651131 -2.68319,0.01405 -2.96753,5.776889 -3.38614,3.83154 -0.60855,-2.828004 -0.38863,-6.599928 0.63354,-10.865834 0.6251,-2.608813 1.16475,-4.832203 2.21418,-5.572194 0.20118,-0.141859 0.18186,-0.131673 0.42286,-0.05653 0.47561,0.148293 1.59378,1.431917 2.30461,2.268979 2.53931,2.990297 4.54151,6.734313 5.33159,9.969807 0.14738,0.603533 0.2948,1.428332 0.3276,1.832888 0.058,0.715597 0.055,0.73157 -0.11351,0.588695 -2.17097,-1.841217 -3.31416,-2.457346 -4.29066,-2.312477 -0.63211,0.09378 -0.62577,0.06519 -0.31444,1.417651 0.723,3.140805 2.50101,9.804228 3.02654,11.342526 0.39714,1.162473 1.1527,2.735564 1.77321,3.691872 0.66222,1.020587 2.03369,2.382491 3.0352,3.014021 l 0.75449,0.47576 0.21616,-0.34241 c 1.57971,-2.502436 2.60676,-7.394548 3.10945,-14.81121 0.23006,-3.39421 0.25665,-4.796637 0.15154,-7.991234 -0.19778,-6.011061 -0.39058,-8.857681 -0.78559,-11.598709 -0.20991,-1.456571 -0.7328,-4.234288 -0.81199,-4.313481 -0.0197,-0.01968 -0.281,0.408538 -0.58072,0.951585 -0.29972,0.543046 -0.92398,1.583274 -1.38723,2.311619 -0.86359,1.357757 -1.56219,2.708574 -1.92701,3.726051 -0.11344,0.31637 -0.23819,0.542409 -0.27723,0.502306 -0.14384,-0.147749 -0.28209,-1.637538 -0.22289,-2.40179 0.14621,-1.887463 0.9803,-4.876583 1.96229,-7.032286 1.16741,-2.562741 3.22672,-6.599208 3.82068,-7.488931 0.82229,-1.231762 1.1946,-1.585052 2.02763,-1.924055 0.66857,-0.272079 0.6701,-0.27224 1.12848,-0.119991 1.14712,0.381013 2.26877,2.073365 4.71159,7.108872 1.42798,2.943556 2.12621,4.776452 2.61978,6.877027 0.28311,1.204901 0.39563,3.406888 0.21779,4.262302 l -0.11254,0.54133 -0.29797,-0.770718 c -0.45185,-1.168744 -1.06138,-2.327958 -1.97635,-3.758589 -0.4554,-0.712057 -1.055,-1.719749 -1.33246,-2.239317 -0.27745,-0.519565 -0.52387,-0.925251 -0.5476,-0.90152 -0.0931,0.0931 -0.59083,2.650776 -0.80207,4.121615 -0.40897,2.847645 -0.59715,5.501765 -0.78674,11.096403 -0.11696,3.451511 -0.0753,6.028857 0.14619,9.041511 0.43042,5.854806 1.15099,9.980967 2.20894,12.648985 0.3739,0.942935 0.98647,2.042695 1.17892,2.116545 0.44377,0.17029 2.57768,-1.74306 3.45924,-3.101691 0.65236,-1.005383 1.39334,-2.561241 1.81435,-3.809596 0.70553,-2.092036 3.32259,-12.209025 3.22441,-12.464885 -0.0854,-0.222623 -0.98921,-0.2701 -1.58401,-0.08321 -0.5988,0.188151 -1.7716,0.94901 -2.72162,1.765671 -0.74712,0.642244 -0.76724,0.622699 -0.59719,-0.580113 0.43653,-3.087692 2.13664,-6.807379 4.63675,-10.144802 0.91676,-1.223788 2.50109,-2.933134 3.14845,-3.396887 0.49753,-0.399131 0.47093,-0.331206 0.77616,0.273984 0.77096,1.5286 1.59913,3.303225 2.25794,6.378501 0.95678,4.466133 0.75615,11.987322 -0.17155,9.343458 -0.82589,-2.35376 -1.50903,-3.23487 -2.65231,-3.420943 -0.29556,-0.0481 -0.54947,-0.07537 -0.56425,-0.06058 -0.0148,0.01479 -0.19376,1.56533 -0.39773,3.44566 -0.67467,6.219635 -1.24174,10.247003 -1.88304,13.373582 -0.17515,0.853921 -0.45871,2.333441 -0.63014,3.287821 -0.9549,5.31631 -2.38746,9.09792 -5.05122,13.33395 -0.77493,1.23234 -1.45441,1.99403 -2.52501,2.8305 -1.55832,1.21755 -2.65322,1.7439 -4.65775,2.2391 -1.9236,0.47521 -1.85766,0.47182 -3.19325,0.16401 z m 5.90586,-6.82081 c 0.69629,-0.27215 1.36331,-0.88401 1.62698,-1.49245 0.39783,-0.91802 0.33361,-2.42738 -0.14332,-3.36855 -0.43696,-0.8623 -1.41862,-1.42116 -2.35643,-1.3415 -1.0903,0.0926 -1.63266,0.66184 -1.68875,1.77242 -0.0375,0.74226 -0.089,0.86712 0.73936,0.95529 0.37775,0.0402 0.34249,-0.29014 0.34249,-0.69092 0,-0.62755 0.10785,-0.82323 0.50929,-0.92398 0.97481,-0.24466 1.77715,0.74949 1.77191,2.19554 -0.005,1.3476 -0.86746,2.06114 -2.49167,2.06114 -0.60672,0 -0.65912,-0.018 -1.21969,-0.41797 -0.71248,-0.50841 -0.9816,-0.89734 -1.22254,-1.76682 -0.10136,-0.36579 -0.2684,-0.82991 -0.37118,-1.03138 -0.25332,-0.49655 -0.8901,-1.09737 -1.62712,-1.53522 -0.53657,-0.31877 -0.68026,-0.363 -1.17938,-0.363 -2.33885,0 -3.98269,2.05868 -3.86502,4.84041 0.0263,0.62231 0.11019,0.89477 0.67688,0.71355 0.57264,-0.12026 0.4741,-0.23548 0.40085,-0.76856 -0.11594,-0.84374 0.25679,-2.07313 0.84199,-2.77924 0.36279,-0.43775 1.09693,-0.82145 1.68853,-0.8825 0.41878,-0.0432 0.53918,-0.0161 0.88841,0.2001 0.49861,0.30868 1.06354,0.83677 1.2261,1.14616 0.0671,0.1278 0.19021,0.49522 0.27346,0.81648 0.29505,1.13866 0.67603,1.69426 1.79927,2.44729 0.23095,0.15483 0.0247,0.0562 0.78308,0.43208 0.66841,0.13778 0.79751,0.16169 1.14485,0.1288 0.80028,-0.0758 1.05401,-0.19175 1.45164,-0.34717 z"
             id="path4-6"
             sodipodi:nodetypes="sssssssssssssscssssscssssssssssssssssscssssssssssssssssssssssssssssssssssssscsssssssssssscsscsss" /></g><path
           style="fill:#0052a8;fill-opacity:1;stroke:#000000;stroke-width:0.345178;stroke-dasharray:none;stroke-opacity:0"
           d="m 167.93068,98.530688 c -2.67003,-0.615362 -4.14719,-1.379752 -6.10339,-3.158322 -0.75344,-0.68504 -1.70624,-2.06653 -2.82072,-4.08988 -1.72624,-3.13399 -2.92033,-6.48238 -3.62954,-10.177756 -0.15906,-0.828807 -0.4925,-2.534364 -0.74097,-3.79013 -0.77577,-3.92077 -1.33526,-7.843692 -1.96031,-13.744927 -0.43016,-4.061306 -0.34044,-3.653549 -0.80342,-3.651131 -2.68319,0.01405 -2.96753,5.776889 -3.38614,3.83154 -0.60855,-2.828004 -0.38863,-6.599928 0.63354,-10.865834 0.6251,-2.608813 1.16475,-4.832203 2.21418,-5.572194 0.20118,-0.141859 0.18186,-0.131673 0.42286,-0.05653 0.47561,0.148293 1.59378,1.431917 2.30461,2.268979 2.53931,2.990297 4.54151,6.734313 5.33159,9.969807 0.14738,0.603533 0.2948,1.428332 0.3276,1.832888 0.058,0.715597 0.055,0.73157 -0.11351,0.588695 -2.17097,-1.841217 -3.31416,-2.457346 -4.29066,-2.312477 -0.63211,0.09378 -0.62577,0.06519 -0.31444,1.417651 0.723,3.140805 2.50101,9.804228 3.02654,11.342526 0.39714,1.162473 1.1527,2.735564 1.77321,3.691872 0.66222,1.020587 2.03369,2.38249 3.0352,3.014019 l 0.75449,0.475766 0.21616,-0.342413 c 1.57971,-2.502437 2.60676,-7.394549 3.10945,-14.811211 0.23006,-3.39421 0.25665,-4.796637 0.15154,-7.991234 -0.19778,-6.011061 -0.39058,-8.857681 -0.78559,-11.598709 -0.20991,-1.456571 -0.7328,-4.234288 -0.81199,-4.313481 -0.0197,-0.01968 -0.281,0.408538 -0.58072,0.951585 -0.29972,0.543046 -0.92398,1.583274 -1.38723,2.311619 -0.86359,1.357757 -1.56219,2.708574 -1.92701,3.726051 -0.11344,0.31637 -0.23819,0.542409 -0.27723,0.502306 -0.14384,-0.147749 -0.28209,-1.637538 -0.22289,-2.40179 0.14621,-1.887463 0.9803,-4.876583 1.96229,-7.032286 1.16741,-2.562741 3.22672,-6.599208 3.82068,-7.488931 0.82229,-1.231762 1.1946,-1.585052 2.02763,-1.924055 0.66857,-0.272079 0.6701,-0.27224 1.12848,-0.119991 1.14712,0.381013 2.26877,2.073365 4.71159,7.108872 1.42798,2.943556 2.12621,4.776452 2.61978,6.877027 0.28311,1.204901 0.39563,3.406888 0.21779,4.262302 l -0.11254,0.54133 -0.29797,-0.770718 c -0.45185,-1.168744 -1.06138,-2.327958 -1.97635,-3.758589 -0.4554,-0.712057 -1.055,-1.719749 -1.33246,-2.239317 -0.27745,-0.519565 -0.52387,-0.925251 -0.5476,-0.90152 -0.0931,0.0931 -0.59083,2.650776 -0.80207,4.121615 -0.40897,2.847645 -0.59715,5.501765 -0.78674,11.096403 -0.11696,3.451511 -0.0753,6.028857 0.14619,9.041511 0.43042,5.854806 1.15099,9.980967 2.20894,12.648985 0.3739,0.942933 0.98647,2.042698 1.17892,2.116545 0.44377,0.170292 2.57768,-1.743061 3.45924,-3.101691 0.65236,-1.005383 1.39334,-2.561241 1.81435,-3.809596 0.70553,-2.092036 3.32259,-12.209025 3.22441,-12.464885 -0.0854,-0.222623 -0.98921,-0.2701 -1.58401,-0.08321 -0.5988,0.188151 -1.7716,0.94901 -2.72162,1.765671 -0.74712,0.642244 -0.76724,0.622699 -0.59719,-0.580113 0.43653,-3.087692 2.13664,-6.807379 4.63675,-10.144802 0.91676,-1.223788 2.50109,-2.933134 3.14845,-3.396887 0.49753,-0.399131 0.47093,-0.331206 0.77616,0.273984 0.77096,1.5286 1.59913,3.303225 2.25794,6.378501 0.95678,4.466133 0.75615,11.987322 -0.17155,9.343458 -0.82589,-2.35376 -1.50903,-3.23487 -2.65231,-3.420943 -0.29556,-0.0481 -0.54947,-0.07537 -0.56425,-0.06058 -0.0148,0.01479 -0.19376,1.56533 -0.39773,3.44566 -0.67467,6.219635 -1.24174,10.247003 -1.88304,13.373582 -0.17515,0.853921 -0.45871,2.333439 -0.63014,3.287823 -0.9549,5.316308 -2.38746,9.097918 -5.05122,13.333948 -0.77493,1.23234 -1.45441,1.99403 -2.52501,2.8305 -1.55832,1.21755 -2.65322,1.7439 -4.65775,2.2391 -1.9236,0.475212 -1.85766,0.471822 -3.19325,0.164012 z m 5.90586,-6.820812 c 0.69629,-0.27215 1.36331,-0.88401 1.62698,-1.49245 0.39783,-0.91802 0.33361,-2.42738 -0.14332,-3.36855 -0.43696,-0.8623 -1.41862,-1.42116 -2.35643,-1.3415 -1.0903,0.0926 -1.63266,0.66184 -1.68875,1.77242 -0.0375,0.74226 -0.089,0.86712 0.73936,0.95529 0.37775,0.0402 0.34249,-0.29014 0.34249,-0.69092 0,-0.62755 0.10785,-0.82323 0.50929,-0.92398 0.97481,-0.24466 1.77715,0.74949 1.77191,2.19554 -0.005,1.3476 -0.86746,2.06114 -2.49167,2.06114 -0.60672,0 -0.65912,-0.018 -1.21969,-0.41797 -0.71248,-0.50841 -0.9816,-0.89734 -1.22254,-1.76682 -0.10136,-0.36579 -0.2684,-0.82991 -0.37118,-1.03138 -0.25332,-0.49655 -0.8901,-1.09737 -1.62712,-1.53522 -0.53657,-0.31877 -0.68026,-0.363 -1.17938,-0.363 -2.33885,0 -3.98269,2.05868 -3.86502,4.84041 0.0263,0.62231 0.11019,0.89477 0.67688,0.71355 0.57264,-0.12026 0.4741,-0.23548 0.40085,-0.76856 -0.11594,-0.84374 0.25679,-2.07313 0.84199,-2.77924 0.36279,-0.43775 1.09693,-0.82145 1.68853,-0.8825 0.41878,-0.0432 0.53918,-0.0161 0.88841,0.2001 0.49861,0.30868 1.06354,0.83677 1.2261,1.14616 0.0671,0.1278 0.19021,0.49522 0.27346,0.81648 0.29505,1.13866 0.67603,1.69426 1.79927,2.44729 0.23095,0.15483 0.0247,0.0562 0.78308,0.43208 0.66841,0.13778 0.79751,0.16169 1.14485,0.1288 0.80028,-0.0758 1.05401,-0.19175 1.45164,-0.34717 z"
           id="path4"
           sodipodi:nodetypes="sssssssssssssscssssscssssssssssssssssscssssssssssssssssssssssssssssssssssssscsssssssssssscsscsss" /></g></g></g></svg>
